# xmcd
#
# Track frame offsets: 
#        200
#        13385
#        29920
#        61382
#
# Disc length: 1068 seconds
#
# Revision: 2
# Processed by: cddbd v1.5.2PL0 Copyright (c) Steve Scherf et al.
# Submitted via: ExactAudioCopy v0.99pb5
#
DISCID=37042a04
DTITLE=Gary Moore - Walking By Myself
DYEAR=1990
DGENRE=Blues
TTITLE0=Walking By Myself
TTITLE1=All Your Love
TTITLE2=Still Got The Blues (For You) Live
TTITLE3=Walking By Myself (Live)
EXTD=
EXTT0=
EXTT1=
EXTT2=
EXTT3=
PLAYORDER=
